<svg xmlns="http://www.w3.org/2000/svg" viewBox="0 0 512 512">
  <rect width="512" height="512" rx="96" fill="#0d0d0d"/>
  <!-- Top-left QR corner -->
  <rect x="72" y="72" width="148" height="148" rx="18" fill="#c8f53a"/>
  <rect x="96" y="96" width="100" height="100" rx="12" fill="#0d0d0d"/>
  <rect x="116" y="116" width="60" height="60" rx="8" fill="#c8f53a"/>
  <!-- Top-right QR corner -->
  <rect x="292" y="72" width="148" height="148" rx="18" fill="#c8f53a"/>
  <rect x="316" y="96" width="100" height="100" rx="12" fill="#0d0d0d"/>
  <rect x="336" y="116" width="60" height="60" rx="8" fill="#c8f53a"/>
  <!-- Bottom-left QR corner -->
  <rect x="72" y="292" width="148" height="148" rx="18" fill="#c8f53a"/>
  <rect x="96" y="316" width="100" height="100" rx="12" fill="#0d0d0d"/>
  <rect x="116" y="336" width="60" height="60" rx="8" fill="#c8f53a"/>
  <!-- Bottom-right data dots -->
  <rect x="292" y="292" width="40" height="40" rx="8" fill="#c8f53a"/>
  <rect x="348" y="292" width="40" height="40" rx="8" fill="#c8f53a"/>
  <rect x="400" y="292" width="40" height="40" rx="8" fill="#c8f53a"/>
  <rect x="292" y="348" width="40" height="40" rx="8" fill="#c8f53a"/>
  <rect x="400" y="348" width="40" height="40" rx="8" fill="#c8f53a"/>
  <rect x="292" y="400" width="40" height="40" rx="8" fill="#c8f53a"/>
  <rect x="348" y="400" width="40" height="40" rx="8" fill="#c8f53a"/>
</svg>
